<svg width="77" height="15" viewBox="0 0 77 15" fill="none" xmlns="http://www.w3.org/2000/svg">
<path d="M2.44792 14V9.26573C2.44792 8.20554 3.12424 7.49265 4.0382 7.49265C5.06183 7.49265 5.59192 8.22381 5.59192 9.13777V14H7.87681V8.66251C7.87681 6.81632 6.46932 5.39055 4.55001 5.39055C3.54466 5.39055 2.83178 5.77441 2.44792 6.14V1.20463H0.163025V14H2.44792Z" fill="#070707"/>
<path d="M10.4778 3.96478C11.337 3.96478 11.9402 3.36157 11.9402 2.59385C11.9402 1.80784 11.337 1.18635 10.4778 1.18635C9.65529 1.18635 9.0338 1.80784 9.0338 2.59385C9.0338 3.36157 9.65529 3.96478 10.4778 3.96478ZM11.6294 14V5.59162H9.34454V14H11.6294Z" fill="#070707"/>
<path d="M18.6444 14.1097V12.0259H17.4929C16.7983 12.0259 16.2499 11.7151 16.2499 10.8012V7.54749H18.6444V5.59162H16.2499V3.58092H14.4951V3.61748C14.4951 4.95185 13.5811 5.84753 12.5941 5.84753H12.5392V7.54749H13.965V11.1302C13.965 13.1043 15.08 14.1097 17.0724 14.1097H18.6444Z" fill="#070707"/>
<path d="M25.9475 9.39368C28.2507 9.11949 29.6582 7.30986 29.6582 5.2626C29.6582 2.95943 27.7937 1.20463 25.326 1.20463H20.4272V14H22.9863V9.43024H23.0228L26.9894 14H30.2431L25.9475 9.39368ZM24.9239 3.48952C26.0755 3.48952 26.9346 4.12929 26.9346 5.2626C26.9346 6.43246 26.0755 7.10879 24.9239 7.10879H22.9863V3.48952H24.9239Z" fill="#070707"/>
<path d="M35.0926 14.2011C36.7194 14.2011 38.0721 13.4516 38.8764 12.3183L37.0667 11.0388C36.6829 11.6968 35.9334 12.0807 35.0926 12.099C34.0324 12.0807 33.1733 11.4775 32.9174 10.4539H39.4613C39.7172 7.51093 37.7979 5.39055 35.056 5.39055C32.3142 5.39055 30.4863 7.43781 30.4863 9.79582C30.4863 12.1721 32.369 14.2011 35.0926 14.2011ZM32.9722 8.91842C33.2281 8.07758 33.9776 7.45609 35.056 7.43781C36.1345 7.45609 36.9022 8.13242 37.1399 8.91842H32.9722Z" fill="#070707"/>
<path d="M43.8438 14V7.54749H45.9459V5.59162H43.8438V4.56799C43.8438 3.52608 44.5202 2.97771 45.3793 2.97771H45.6718V0.83905H45.3062C43.2406 0.83905 41.6321 2.02719 41.6321 4.27553V4.69595C41.6321 5.35399 41.1203 5.68302 40.4622 5.68302H39.9687V7.54749H41.559V14H43.8438Z" fill="#070707"/>
<path d="M48.9578 14V9.68614C48.9578 8.42488 49.6524 7.63888 50.9137 7.63888H51.8094V5.46367H51.1696C50.2191 5.46367 49.3051 5.82925 48.8482 6.57869V5.59162H46.7095V14H48.9578Z" fill="#070707"/>
<path d="M56.6343 14.2011C58.2612 14.2011 59.6138 13.4516 60.4181 12.3183L58.6085 11.0388C58.2246 11.6968 57.4752 12.0807 56.6343 12.099C55.5741 12.0807 54.715 11.4775 54.4591 10.4539H61.003C61.2589 7.51093 59.3396 5.39055 56.5978 5.39055C53.8559 5.39055 52.028 7.43781 52.028 9.79582C52.028 12.1721 53.9107 14.2011 56.6343 14.2011ZM54.5139 8.91842C54.7699 8.07758 55.5193 7.45609 56.5978 7.43781C57.6762 7.45609 58.444 8.13242 58.6816 8.91842H54.5139Z" fill="#070707"/>
<path d="M64.8189 14.2011C66.9759 14.2011 68.1274 12.9398 68.1274 11.3861C68.1274 9.96033 67.2683 9.0281 65.0565 8.68079C64.4168 8.57112 64.0695 8.37005 64.0695 7.94963C64.0695 7.60232 64.3985 7.32814 64.9103 7.32814C65.4404 7.32814 65.806 7.58405 65.9339 8.00447L67.8532 7.3647C67.5242 6.26795 66.5554 5.39055 64.9103 5.39055C63.0093 5.39055 61.876 6.59697 61.876 7.96791C61.876 9.79582 63.1921 10.4539 64.892 10.7281C65.5318 10.8377 65.8791 11.0571 65.8791 11.4958C65.8791 11.9162 65.4952 12.1721 64.8555 12.1721C64.2705 12.1721 63.7953 11.8431 63.6125 11.313L61.6201 12.0624C61.9674 13.1957 62.9727 14.2011 64.8189 14.2011Z" fill="#070707"/>
<path d="M71.5001 14V9.26573C71.5001 8.20554 72.1764 7.49265 73.0903 7.49265C74.114 7.49265 74.6441 8.22381 74.6441 9.13777V14H76.929V8.66251C76.929 6.81632 75.5215 5.39055 73.6021 5.39055C72.5968 5.39055 71.8839 5.77441 71.5001 6.14V1.20463H69.2152V14H71.5001Z" fill="#070707"/>
</svg>
