<svg width="171" height="174" viewBox="0 0 171 174" fill="none" xmlns="http://www.w3.org/2000/svg">
<mask id="mask0_105_25" style="mask-type:alpha" maskUnits="userSpaceOnUse" x="0" y="0" width="171" height="174">
<path d="M169.316 70.6853C170.406 76.5094 171 82.5987 171 88.9532C171 138.657 137.638 174 87.2505 174C75.7916 174.003 64.4443 171.756 53.857 167.385C43.2697 163.014 33.6499 156.605 25.5473 148.526C17.4446 140.447 11.0179 130.854 6.63444 120.298C2.25093 109.741 -0.00348968 98.426 4.05454e-06 87C-0.00348968 75.574 2.25093 64.2593 6.63444 53.7024C11.0179 43.1455 17.4446 33.5533 25.5473 25.4739C33.6499 17.3946 43.2697 10.9863 53.857 6.61539C64.4443 2.24446 75.7916 -0.00347967 87.2505 4.0429e-06C110.809 4.0429e-06 130.495 8.64344 145.598 22.678L121.002 47.2031V47.1412C111.846 38.4447 100.226 33.9816 87.2505 33.9816C58.4624 33.9816 35.0633 58.2327 35.0633 86.947C35.0633 115.652 58.4624 139.957 87.2505 139.957C113.371 139.957 131.151 125.065 134.802 104.614H87.2505V70.6853H169.325H169.316Z" fill="#4285F4"/>
</mask>
<g mask="url(#mask0_105_25)">
<path d="M50.5 70L7 26.5L91 -16L162 10.5L140 53.5L50.5 70Z" fill="#EA4335"/>
<path d="M50.5 69.5L8 27L-18.5 71L0.5 136.5L51 106L50.5 69.5Z" fill="#FBBC05"/>
<path d="M46 108.5L2.5 135L52 191.5L150 168.5L88 106.5L46 108.5Z" fill="#34A853"/>
<path d="M143.5 162L112 130.5L82.5 107.5L81 69L173 60L195.5 102L143.5 162Z" fill="#4285F4"/>
</g>
</svg>
