<?xml version="1.0" standalone="no"?>
<!DOCTYPE svg PUBLIC "-//W3C//DTD SVG 1.0//EN" "http://www.w3.org/TR/2001/REC-SVG-20010904/DTD/svg10.dtd">
<svg xmlns="http://www.w3.org/2000/svg" xmlns:xlink="http://www.w3.org/1999/xlink" id="body_1" width="277" height="361">

<g transform="matrix(6.9249997 0 0 6.942307 1.7312499 -0)">
    <path d="M39.539 45.623C 39.539 47.34 38.836002 48.338 37.461002 48.869C 32.117004 50.928 25.789001 51.988 19.771002 51.988C 13.750002 51.988 7.422002 50.927 2.0790024 48.869C 0.7040024 48.338 2.3841858E-06 47.34 2.3841858E-06 45.623L2.3841858E-06 45.623L2.3841858E-06 0.012001038L39.539005 0.012001038L39.539 45.623z" stroke="none" fill="#005DAA" fill-rule="nonzero" />
    <path d="M10.604 27.808C 5.129 24.390001 3.323 22.877 3.1670003 20.635C 3.1410003 20.181 3.2450004 19.412 3.4360003 18.864L3.4360003 18.864L2.9200003 18.522C 2.5080004 19.18 2.2450004 20.045 2.2450004 20.838C 2.2450004 22.133999 2.6580005 23.113998 3.1670003 23.897C 3.9360003 25.081 4.7450004 25.826 6.7390003 27.321999C 8.887 28.932999 10.353001 30.814 11.1970005 32.783997L11.1970005 32.783997L11.502001 32.783997L11.502001 30.548996C 14.403001 32.196995 16.963001 33.744995 18.222 36.514996L18.222 36.514996L18.526001 36.514996C 18.033 33.644997 16.409 31.431995 10.604001 27.807995" stroke="none" fill="#FFD200" fill-rule="nonzero" />
    <path d="M35.822 36.519L35.447998 36.519C 35.447998 34.477 33.574997 33.918 31.613998 33.918L31.613998 33.918L25.481998 33.918C 25.679998 34.926 25.770998 36.105 25.619999 37.218998L25.619999 37.218998L25.314 37.218998C 24.747 32.627 22.153 30.354998 18.525 27.918L18.525 27.918L18.525 30.009998L18.22 30.009998C 17.255 27.851997 15.138 25.829998 13.133999 24.393997C 12.600999 24.013998 12.045999 23.619997 11.498999 23.230997L11.498999 23.230997L11.498999 25.481997L11.193998 25.481997C 10.343998 23.247997 8.800999 21.580997 6.5999985 19.593996C 4.220999 17.453997 3.2639985 16.172997 2.7059984 14.699996C 2.3679984 13.807996 2.2739985 13.086996 2.2609985 12.107996C 2.2399986 10.356996 3.1269984 8.774996 4.2289987 8.184996L4.2289987 8.184996L4.2289987 9.032995C 3.6829987 9.755995 3.3999987 10.674995 3.3979988 11.605995C 3.3949988 12.466995 3.6009989 13.422996 4.028999 14.236996C 5.367999 16.784996 9.877998 19.912996 12.74 21.835995C 21.645 27.807995 23.423 28.849995 24.901001 32.018993C 25.066002 32.371994 25.230001 32.845993 25.367 33.398994C 26.653 33.199993 31.32 32.487995 32.179 32.351994C 32.346 32.324993 32.689 32.283993 32.867 32.27199C 33.672 31.763992 34.298 31.115992 34.847 30.307991L34.847 30.307991L31.437 30.042992C 31.26 30.433992 31.087 30.763992 30.934 31.02699L30.934 31.02699L30.654 31.02699C 30.748 30.68099 30.828999 30.338991 30.9 30.001991L30.9 30.001991L30.026 29.939991L30.026 29.751991L30.970999 29.63499C 31.151 28.66999 31.237999 27.755991 31.255 26.90299L31.255 26.90299L26.953999 26.65799C 26.932999 27.099989 26.928999 27.51499 26.943998 27.901989L26.943998 27.901989L26.669998 27.901989C 26.575998 27.471989 26.503998 27.045988 26.449999 26.63099L26.449999 26.63099L25.508 26.57499L25.508 26.28899L26.404 26.23999C 26.278 25.10099 26.269999 24.03999 26.314999 23.126991L26.314999 23.126991L23.801998 23.01399C 23.918999 23.23599 24.041998 23.456991 24.127998 23.70199C 24.671999 25.21899 24.541998 26.99499 24.363998 27.81399L24.363998 27.81399L24.058998 27.81399C 24.013998 26.86799 23.696999 25.70699 23.393997 25.00099C 22.698997 23.36199 21.139997 21.91199 18.523998 20.23199L18.523998 20.23199L18.523998 22.32599L18.218998 22.32599C 17.349998 19.57599 15.183998 18.04499 11.964998 16.39199C 9.308998 15.028991 8.483998 13.38599 8.633998 10.84399L8.633998 10.84399L9.531998 11.37599C 9.760998 13.751989 11.586998 15.12599 13.499998 15.11199C 14.6259985 15.10199 15.680998 14.95199 16.698997 14.74999C 18.170998 14.450991 19.532997 14.19999 20.669998 14.60099L20.669998 14.60099L20.669998 13.19799L19.776 13.19799C 19.456 13.47299 18.807999 13.79199 17.855 13.8089905C 16.807999 13.82699 14.825999 13.22399 14.825999 11.00899C 14.825999 9.0849905 16.453 8.77699 17.778 8.77699C 18.49 8.77699 19.67 8.75199 20.07 8.73099C 20.365 8.71099 20.587 8.66699 20.732 8.52299C 20.882 8.37599 20.927 8.22399 20.961 8.02699C 21.003 7.78799 21.003 7.54499 21.003 7.13199L21.003 7.13199L21.003 5.72599L14.860001 5.72599L14.860001 8.16099L12.535001 7.2759895L12.535001 6.6929893L13.647001 6.6929893L13.647001 5.7259893L9.504002 5.7259893L9.504002 3.7059894L8.092002 3.7059894C 7.3380017 3.7059894 6.467002 4.2359896 6.404002 5.260989C 6.347002 6.243989 6.7890024 7.0729895 7.802002 7.0729895L7.802002 7.0729895L7.9830017 7.0729895L7.9830017 8.2499895L7.802002 8.2499895C 6.027002 8.2499895 4.691002 6.9179897 4.691002 5.1499896C 4.691002 3.3059897 6.260002 1.9019897 8.159002 1.9019897L8.159002 1.9019897L11.155003 1.9019897L11.155003 3.9229896L22.810001 3.9229896L22.810001 6.9099894C 22.810001 7.4139895 22.781002 8.088989 22.733002 8.51499C 22.697002 8.82699 22.588001 9.38599 22.000002 9.83599C 21.643002 10.10599 21.107002 10.21499 20.239002 10.21899C 19.954002 10.219991 19.128002 10.20699 18.138002 10.14499C 16.810003 10.05999 16.432003 10.57399 16.378002 11.04999C 16.367002 11.14999 16.367002 11.246989 16.380003 11.33999C 17.002003 10.85999 17.882004 10.51899 18.880003 10.83499C 20.638002 11.387989 21.141003 11.435989 22.057003 10.7169895L22.057003 10.7169895L22.150003 10.921989C 22.050003 11.074989 21.875004 11.29499 21.618004 11.489989L21.618004 11.489989L22.467003 11.489989L22.467003 16.09199L25.111004 14.505989L32.535004 14.505989C 32.535004 14.505989 35.671005 16.144989 36.186005 16.41499C 36.642006 16.65499 36.821003 16.94499 36.891006 17.36999C 36.952007 17.724989 36.858006 18.17499 36.685005 18.46299C 36.576004 18.64299 35.723003 20.03999 35.274006 20.78599C 36.535007 22.15099 37.386005 24.06099 37.386005 26.18799C 37.386005 28.11599 36.673004 30.60199 34.356007 32.44999C 35.376007 32.78399 36.029007 33.33999 36.542007 34.070988L36.542007 34.070988L35.822 36.519zM19.270998 11.738001C 18.227999 11.509001 17.645998 11.6380005 17.046997 12.209001C 17.340998 12.349001 17.707996 12.425 18.112997 12.398001C 18.699997 12.356001 19.061996 12.0060005 19.270996 11.738001zM18.669998 18.369001L21.607998 16.608002C 21.029999 16.323002 20.391998 16.140001 19.635998 16.131002C 18.622997 16.113003 16.913998 16.577002 16.088997 16.706003C 16.457996 16.957003 17.767998 17.795004 18.669996 18.369003zM31.782997 18.556002L32.19 17.982002L31.56 17.143002L31.664999 16.956001L33.436 17.911001L33.049 19.083002C 33.336 19.221003 33.599 19.393002 33.947998 19.625002L33.947998 19.625002L35.093998 17.743002L32.127 16.193003L25.574 16.193003L20.254 19.393003C 21.251999 20.087004 22.174 20.837004 22.827 21.593004C 24.251 19.518003 26.756 18.197004 29.237 18.197004C 30.048 18.198004 30.991999 18.285004 31.782999 18.556004zM31.249996 25.984001C 31.213997 25.005001 31.092997 24.119001 30.927996 23.338001L30.927996 23.338001L27.454996 23.181002C 27.217997 24.238 27.059996 25.269001 26.987995 26.211002zM32.417995 23.407001C 32.528996 24.304 32.542995 25.143002 32.483997 25.918001L32.483997 25.918001L35.924995 25.738C 35.836994 24.956001 35.613995 24.217001 35.281994 23.539001zM30.665995 22.281002C 30.305994 21.038002 29.876995 20.175003 29.650995 19.769001C 29.506996 19.76 29.359995 19.757002 29.214994 19.757002C 28.971994 19.757002 28.728994 19.788002 28.493994 19.813002C 28.146994 20.682001 27.863995 21.559002 27.633993 22.449001zM31.619995 20.195002C 31.876995 20.886002 32.069996 21.552002 32.210995 22.195002L32.210995 22.195002L34.312996 22.080002C 33.590996 21.248001 32.667995 20.595001 31.619995 20.195002zM35.488995 29.070002C 35.734993 28.471 35.891994 27.896002 35.938995 27.168001L35.938995 27.168001L32.362995 26.965002C 32.199997 27.967003 31.933994 28.838001 31.647995 29.551003zM26.669994 20.336002C 25.472994 20.872002 24.646994 21.601002 23.908995 22.647003L23.908995 22.647003L26.356995 22.519003C 26.444994 21.432003 26.587996 20.709003 26.669994 20.336002" stroke="none" fill="#FFD200" fill-rule="nonzero" />
	<g>
        <path d="M22.129 41.801C 23.126999 41.639 24.079 40.863 24.079 39.69C 24.079 38.633 23.629 37.472 20.517 37.472L20.517 37.472L15.2630005 37.472L15.2630005 37.557C 15.422001 37.606 15.675 37.735 15.84 37.895C 16.196001 38.246002 16.315 38.765 16.329 39.457L16.329 39.457L16.329 47.32L20.682001 47.32C 23.076 47.32 24.809002 46.409 24.809002 44.314C 24.810001 42.613 23.485003 41.89 22.129002 41.801L22.129002 41.801L22.129 41.801zM19.889 38.409C 21.003 38.409 21.758 38.652 21.758 39.84C 21.758 41.108 20.747 41.457 19.592 41.457L19.592 41.457L18.596998 41.457L18.596998 38.409zM20.002 46.39L18.597 46.39L18.597 42.368L19.938 42.368C 21.779999 42.368 22.486 42.919 22.486 44.298C 22.485 45.789 21.562 46.39 20.002 46.39" stroke="none" fill="#FFFFFF" fill-rule="nonzero" />
        <path d="M11.389 47.318L14.226 47.318L10.604 42.689C 12.055 42.3 13.142 41.504997 13.142 40.062C 13.142 38.369 12.127 37.471 9.477 37.471L9.477 37.471L3.9950004 37.471L3.9950004 37.556C 4.1980004 37.626 4.4230003 37.757 4.5720005 37.902C 4.9550004 38.281002 5.0700006 38.859 5.0700006 39.639L5.0700006 39.639L5.0700006 47.318L7.3450007 47.318L7.3450007 42.955L8.175001 42.955L11.389 47.318zM7.3459997 38.409L8.877 38.409C 10.153999 38.409 10.82 38.783 10.82 40.137C 10.82 41.347 9.95 42.065002 8.551 42.065002L8.551 42.065002L7.3459997 42.065002z" stroke="none" fill="#FFFFFF" fill-rule="nonzero" />
        <path d="M34.01 38.822C 34.616997 39.163998 34.802998 39.616997 34.808 39.621C 34.836 39.654 34.902 39.642998 34.902 39.642998L34.902 39.642998L35.397 37.957996C 35.397 37.957996 34.508 37.318996 32.392 37.318996C 29.189999 37.318996 26.793 38.931995 26.793 42.461998C 26.793 46.439 29.647999 47.472 32.167 47.472C 34.508 47.472 35.43 46.726 35.43 46.726L35.43 46.726L35.43 45.572002C 35.43 45.572002 34.601 46.344 32.826 46.344C 31.363 46.344 29.209 45.674004 29.166 42.406002C 29.122 39.385002 30.439001 38.402 32.201 38.402C 33.185 38.402 33.676 38.633 34.010002 38.822" stroke="none" fill="#FFFFFF" fill-rule="nonzero" />
	</g>
</g>
</svg>